# xmcd CD database file
#
# Track frame offsets:
#	150
#	11647
#	33195
#	37230
#	49612
#	62670
#	77790
#	89647
#	97797
#	100842
#	114330
#
# Disc length: 1851 seconds
#
# Revision: 5
# Processed by: cddbd v1.5.1PL0 Copyright (c) Steve Scherf et al.
# Submitted via: CDex 1.50beta9
#
DISCID=8107390b
DTITLE=Les VRP - Remords et tristes pets
DYEAR=1989
DGENRE=Humour
TTITLE0=Le Camp d'Entrainement
TTITLE1=Le Roi de la Route
TTITLE2=Le Nain
TTITLE3=Jacques
TTITLE4=Mardi Gras
TTITLE5=Je n'en Peux Plus
TTITLE6=Blues Intestinal
TTITLE7=Les Livres de Fesse
TTITLE8=Le Viet
TTITLE9=V.R.P.
TTITLE10=Alexandrie, Alexandra
EXTD=YEAR: 1989
EXTT0=
EXTT1=
EXTT2=
EXTT3=
EXTT4=
EXTT5=
EXTT6=
EXTT7=
EXTT8=
EXTT9=
EXTT10=
PLAYORDER=
